<?xml version="1.0" encoding="utf-8"?>
<!-- Generator: Adobe Illustrator 15.0.2, SVG Export Plug-In  -->
<!DOCTYPE svg PUBLIC "-//W3C//DTD SVG 1.1//EN" "http://www.w3.org/Graphics/SVG/1.1/DTD/svg11.dtd" [
	<!ENTITY ns_flows "http://ns.adobe.com/Flows/1.0/">
]>
<svg version="1.1"
	 xmlns="http://www.w3.org/2000/svg" xmlns:xlink="http://www.w3.org/1999/xlink" xmlns:a="http://ns.adobe.com/AdobeSVGViewerExtensions/3.0/"
	 x="0px" y="0px" width="83px" height="34px" viewBox="-0.458 -0.292 83 34" enable-background="new -0.458 -0.292 83 34"
	 xml:space="preserve">
<defs>
</defs>
<path fill="#FFFFFF" d="M35.657,14.629c-0.768-2.683-2.405-3.406-4.913-3.406c-4.605,0-6.652,3.172-6.652,6.834
	c0,4.502,2.533,7.488,6.678,7.488c2.866,0,4.196-1.26,5.45-3.709l0.64,0.07c-0.333,1.003-0.896,2.869-1.305,3.755
	c-0.717,0.164-3.02,0.653-4.811,0.653c-6.473,0-9.185-4.012-9.185-7.721c0-4.805,4.068-8.141,9.671-8.141
	c2.175,0,3.889,0.467,4.605,0.606c0.205,1.283,0.308,2.31,0.461,3.522L35.657,14.629z"/>
<path fill="#FFFFFF" d="M52.542,22.583c0,2.542,0,2.706,2,2.846v0.279h-7v-0.279c2-0.141,3-0.304,3-2.846v-8.397
	c0-2.542-1-2.706-3-2.846v-0.631h7v0.631c-2,0.14-2,0.303-2,2.846V22.583z"/>
<path fill="#FFFFFF" d="M81.271,14.629c-0.768-2.683-2.405-3.406-4.913-3.406c-4.605,0-6.652,3.172-6.652,6.834
	c0,4.502,2.533,7.488,6.678,7.488c2.866,0,4.196-1.26,5.45-3.709l0.64,0.07c-0.333,1.003-0.896,2.869-1.305,3.755
	c-0.717,0.164-3.02,0.653-4.811,0.653c-6.474,0-9.186-4.012-9.186-7.721c0-4.805,4.068-8.141,9.672-8.141
	c2.175,0,3.889,0.467,4.605,0.606c0.204,1.283,0.307,2.31,0.461,3.522L81.271,14.629z"/>
<polygon fill="#FFFFFF" points="0.731,5.708 17.322,5.708 11.192,0 "/>
<polygon fill="#FFFFFF" points="0,9.315 4.049,9.428 2.84,32.542 1.237,32.908 "/>
<polygon fill="#FFFFFF" points="6.777,8.247 10.292,8.163 9.729,28.606 7.79,28.549 "/>
<polygon fill="#FFFFFF" points="13.385,9.484 17.182,9.231 16.422,32.345 14.172,32.571 "/>
<rect x="40.827" y="17.997" transform="matrix(0.707 -0.7072 0.7072 0.707 -1.2581 35.3364)" fill="#FFFFFF" width="2.38" height="2.38"/>
<rect x="59.551" y="17.997" transform="matrix(0.707 -0.7072 0.7072 0.707 4.2279 48.578)" fill="#FFFFFF" width="2.38" height="2.38"/>
</svg>
