<?xml version="1.0" encoding="utf-8"?>
<!-- Generator: Adobe Illustrator 15.0.2, SVG Export Plug-In  -->
<!DOCTYPE svg PUBLIC "-//W3C//DTD SVG 1.1//EN" "http://www.w3.org/Graphics/SVG/1.1/DTD/svg11.dtd" [
	<!ENTITY ns_flows "http://ns.adobe.com/Flows/1.0/">
]>
<svg version="1.1"
	 xmlns="http://www.w3.org/2000/svg" xmlns:xlink="http://www.w3.org/1999/xlink" xmlns:a="http://ns.adobe.com/AdobeSVGViewerExtensions/3.0/"
	 x="0px" y="0px" width="45px" height="43px" viewBox="0 0 45 43" enable-background="new 0 0 45 43" xml:space="preserve">
<defs>
</defs>
<path fill="#FFFFFF" d="M45,0H25v10c0,0,4,0,5,0c0,1,0,8.891,0,10.492C29,18.83,13.558,0,13.558,0H0v10h5c0,1,0,22,0,23H0v10h21V33
	c0,0-5,0-6,0c0-1,0-8.814,0-10.415C17,24.246,31.76,43,31.76,43H45V33c0,0-4,0-5,0c0-1,0-22,0-23c1,0,5,0,5,0V0L45,0z M44,1v8h-5
	v24.834l5,0.01V42H32.197C31.934,42,15,19.989,15,19.989V34h5v8H1v-8h5V9H1V1h12.121C13.385,1,31,23.088,31,23.088V9h-5V1H44z"/>
<path fill="#AB1E23" d="M44,1v8h-5v24.834l5,0.01V42c0,0-11.395,0-11.803,0C31.934,42,15,19.989,15,19.989V34c0,0,4,0,5,0
	c0,1,0,7,0,8c-1,0-18,0-19,0c0-1,0-7,0-8c1,0,5,0,5,0V9c0,0-4,0-5,0c0,0,0-7,0-8c1,0,11.713,0,12.121,0
	C13.385,1,31,23.088,31,23.088V9h-5V1H44z"/>
<path fill="#FFFFFF" d="M37.029,6.311c0.578-0.508,1.418-0.664,2.282-0.664c0.416-0.005,0.892-0.005,1.157-0.003
	C40.732,5.645,41,5.646,41,5.646V5H29v1h1.728c0.608,0,1.479-0.084,2.093,0.384C33.436,6.853,34,7.52,34,9.025v22.242L12.482,5H4
	v0.618c1,0,1.933,0.355,2.947,0.937C7.962,7.137,9,7.946,9,8.854v25.151c0,1.404-0.296,2.264-0.874,2.77
	c-0.579,0.508-1.341,0.664-2.206,0.664c-0.415,0.006-1.005,0.006-1.271,0.006C4.384,37.443,4,37.439,4,37.439V39h12v-2h-1.417
	c-0.61,0-1.135,0.128-1.749-0.341C12.22,36.192,12,35.566,12,34.062V11.767L32.867,39H41v-1.531c-1,0-1.932-0.355-2.947-0.938
	C37.04,35.951,36,35.141,36,34.232V9.082C36,7.676,36.449,6.818,37.029,6.311z"/>
</svg>
